<svg xmlns="http://www.w3.org/2000/svg" id="svg1" width="190" height="190" viewBox="0 0 190 190"><g id="g1"><path id="path4" d="M102.165 147.642c-28.212-21.76-27.387-20.38-12.37-20.687 16.163-.33 14.07-1.794 17.027 11.903 3.162 14.651 3.1 14.768-4.657 8.784m18.397-26.62c-2.881-.365-3.191-.799-4.344-6.09-2.518-11.552-5.76-15.084-18.053-19.663-11.783-4.389-13.171-7.483-3.373-7.52 5.135-.019 6.143-1.209 6.968-8.227.536-4.566 1.088-5.778 3.03-6.663 3.008-1.37 3.1-4.782.28-10.309-3.191-6.257-4.596-12.947-4.115-19.6.564-7.79.182-7.982-16.144-8.114C57.97 34.62 46.668 51.835 59.755 73c6.87 11.112 5.124 15.528-9.326 23.576-6.803 3.789-9.898 8.202-10.905 15.553-.347 2.533-.771 4.605-.942 4.605-2.09 0-10.423-6.036-15.307-11.089-28.254-29.23-14.154-78.069 25.522-88.403 8.527-2.221 84.198-2.21 92.907.014 65.808 16.8 46.35 112.3-21.142 103.766" style="fill:#22b7b5"/><path id="path2" d="M58.232 119.958c-20.775-3.063-19.429-2.453-17.762-8.05 1.703-5.716 5.556-9.547 13.417-13.34 15.066-7.267 18.33-18.452 9.27-31.764-8.531-12.534-5.6-23.106 7.932-28.607 4.28-1.74 27.72-1.934 27.72-.23 0 .176-.592 1.497-1.317 2.935-1.416 2.809.667 12.374 4.475 20.555 1.588 3.41 1.615 4.08.199 4.87-.903.505-2.156 3.841-2.785 7.414-1.143 6.497-1.143 6.497-6.989 7.03-14.567 1.326-13.028 12.49 2.417 17.535 14.405 4.705 18.709 8.405 20.587 17.7.67 3.313.454 3.804-1.915 4.378-3.815.923-48.429.58-55.249-.426" style="fill:#000;stroke-width:1.08685"/></g></svg>